<?xml version="1.0" encoding="utf-8"?>
<!-- Generator: Adobe Illustrator 25.1.0, SVG Export Plug-In . SVG Version: 6.00 Build 0)  -->
<svg version="1.1" id="レイヤー_1" xmlns="http://www.w3.org/2000/svg" xmlns:xlink="http://www.w3.org/1999/xlink" x="0px"
	 y="0px" viewBox="0 0 375.3 147.5" style="enable-background:new 0 0 375.3 147.5;" xml:space="preserve">
<g>
	<path d="M102,34.48c-4.66-0.19-8.87,3.24-9.63,8l-36.8,77.41c-12.32-25.8-24.63-51.6-36.95-77.41c-1.14-3.66-4.1-6.4-7.63-7
		c-4.52-0.76-9.3,2.11-11,7c0,32.9,0,65.81,0,98.71c1.3,3.89,5,6.45,9,6.29c3.74-0.15,7.05-2.66,8.26-6.29V73.58
		c10.75,22.54,21.5,45.07,32.25,67.61c-0.02,3.71,3.14,6.56,6.48,6.29c3.01-0.24,5.52-2.97,5.48-6.29l32.1-67.61
		c0,22.54,0,45.07,0,67.61c1.21,3.67,4.6,6.2,8.42,6.29c3.97,0.09,7.59-2.47,8.85-6.29c0-32.9,0-65.81,0-98.71
		C110.14,38.01,106.38,34.66,102,34.48z"/>
	<path d="M241,19.48c-5.2-2.37-11.51-0.72-15,4c-0.69,2.18-1.7,5.28-3,9c-1.35,3.84-2.24,6.01-5.53,14.83
		c-1.7,4.55-2.57,6.87-3.47,9.17c-2.92,7.46-4.95,11.95-7,16c-2.53,5-3.93,7.06-6,9c-1.6,1.5-3.7,3.43-7,4c-3.22,0.55-5.85-0.51-7-1
		c-5.05-2.13-7.34-6.57-8-8c-4.45-2.75-9.52-3.24-13-1c-1.94,1.25-3.03,3.15-3.63,5.16c-5.29-3.53-11.76-5.46-18.81-5.46
		c-18.22,0-32.6,12.88-32.6,32.95c0,20.07,13.81,33.07,32.02,33.07c18.33,0,33.18-12.99,33.18-33.07c0-0.58-0.01-1.15-0.04-1.72
		c7.02,4,14.14,5.89,14.88,6.07c2.33,0,4.67,0,7,0c4.07-0.76,9.48-2.47,14.07-6.71c2.46-2.27,4.05-4.47,4.73-5.93
		c10.4-22.46,20.8-44.91,31.2-67.37C248.78,27.02,245.89,21.71,241,19.48z M142.98,129.7c-9.98,0-18.56-7.08-18.56-21.58
		c0-14.5,8.93-21.47,18.91-21.47c9.86,0,19.26,6.96,19.26,21.47C162.58,122.62,152.84,129.7,142.98,129.7z"/>
	<path d="M241.92,17.84c7.73,3.61,15.48,3.13,17.5-1.18c2.01-4.31-2.6-10.56-10.33-14.17c-7.92-3.7-15.67-3.22-17.69,1.09
		C229.39,7.89,234,14.14,241.92,17.84z"/>
	<path d="M250.67,51.85c-7.59,0-13.51,3.71-13.51,8.47c0,4.76,5.92,8.47,13.51,8.47c7.41,0,13.33-3.71,13.33-8.47
		C264,55.56,258.08,51.85,250.67,51.85z"/>
	<rect x="239.93" y="77.26" width="21.11" height="63.93"/>
	<path d="M317,53.4h-16.78v-6.21c0-10.04,3.95-13.86,15.46-13.86V18.19c-23.69,0-34.38,8.76-34.38,29v6.21H270.6v14.82h10.69v72.97
		h18.92V68.22H317V53.4z"/>
	<path d="M361.96,76.21v9.28c-3.94-5.22-11.37-10.33-22.16-10.33c-16.82,0-30.17,13-30.17,32.72s13.34,33.3,29.94,33.3
		c10.67,0,18.33-5.1,22.39-10.56v9.51h13.34V76.21H361.96z M342.58,129.7c-9.86,0-19.38-8.01-19.38-21.81
		c0-13.81,9.51-21.23,19.38-21.23c9.98,0,19.38,7.77,19.38,21.47C361.96,121.93,352.56,129.7,342.58,129.7z"/>
</g>
</svg>
